<?xml version="1.0" encoding="UTF-8" standalone="no"?>
<!DOCTYPE svg PUBLIC "-//W3C//DTD SVG 1.1//EN"
 "http://www.w3.org/Graphics/SVG/1.1/DTD/svg11.dtd">
<!-- Generated by graphviz version 2.28.0 (20120603.0520)
 -->
<!-- Title: G Pages: 1 -->
<svg width="294pt" height="713pt"
 viewBox="0.00 0.00 294.00 713.00" xmlns="http://www.w3.org/2000/svg" xmlns:xlink="http://www.w3.org/1999/xlink">
<g id="graph1" class="graph" transform="scale(1 1) rotate(0) translate(4 709)">
<title>G</title>
<polygon fill="white" stroke="white" points="-4,5 -4,-709 291,-709 291,5 -4,5"/>
<g id="graph2" class="cluster"><title>cluster_Global</title>
<polyline fill="none" stroke="gray" points="166,-8 266,-8 "/>
<path fill="none" stroke="gray" d="M266,-8C272,-8 278,-14 278,-20"/>
<polyline fill="none" stroke="gray" points="278,-20 278,-685 "/>
<path fill="none" stroke="gray" d="M278,-685C278,-691 272,-697 266,-697"/>
<polyline fill="none" stroke="gray" points="266,-697 166,-697 "/>
<path fill="none" stroke="gray" d="M166,-697C160,-697 154,-691 154,-685"/>
<polyline fill="none" stroke="gray" points="154,-685 154,-20 "/>
<path fill="none" stroke="gray" d="M154,-20C154,-14 160,-8 166,-8"/>
<text text-anchor="middle" x="216" y="-682" font-family="Times,serif" font-size="11.00" fill="gray">\</text>
</g>
<g id="graph3" class="cluster"><title>cluster_\Basho</title>
<polyline fill="none" stroke="gray" points="174,-16 258,-16 "/>
<path fill="none" stroke="gray" d="M258,-16C264,-16 270,-22 270,-28"/>
<polyline fill="none" stroke="gray" points="270,-28 270,-656 "/>
<path fill="none" stroke="gray" d="M270,-656C270,-662 264,-668 258,-668"/>
<polyline fill="none" stroke="gray" points="258,-668 174,-668 "/>
<path fill="none" stroke="gray" d="M174,-668C168,-668 162,-662 162,-656"/>
<polyline fill="none" stroke="gray" points="162,-656 162,-28 "/>
<path fill="none" stroke="gray" d="M162,-28C162,-22 168,-16 174,-16"/>
<text text-anchor="middle" x="216" y="-653" font-family="Times,serif" font-size="11.00" fill="gray">Basho</text>
</g>
<g id="graph4" class="cluster"><title>cluster_\Basho\Riak</title>
<polyline fill="none" stroke="gray" points="182,-24 250,-24 "/>
<path fill="none" stroke="gray" d="M250,-24C256,-24 262,-30 262,-36"/>
<polyline fill="none" stroke="gray" points="262,-36 262,-627 "/>
<path fill="none" stroke="gray" d="M262,-627C262,-633 256,-639 250,-639"/>
<polyline fill="none" stroke="gray" points="250,-639 182,-639 "/>
<path fill="none" stroke="gray" d="M182,-639C176,-639 170,-633 170,-627"/>
<polyline fill="none" stroke="gray" points="170,-627 170,-36 "/>
<path fill="none" stroke="gray" d="M170,-36C170,-30 176,-24 182,-24"/>
<text text-anchor="middle" x="216" y="-624" font-family="Times,serif" font-size="11.00" fill="gray">Riak</text>
</g>
<g id="graph5" class="cluster"><title>cluster_\Basho\Riak\Link</title>
<polyline fill="none" stroke="gray" points="193,-537 239,-537 "/>
<path fill="none" stroke="gray" d="M239,-537C245,-537 251,-543 251,-549"/>
<polyline fill="none" stroke="gray" points="251,-549 251,-598 "/>
<path fill="none" stroke="gray" d="M251,-598C251,-604 245,-610 239,-610"/>
<polyline fill="none" stroke="gray" points="239,-610 193,-610 "/>
<path fill="none" stroke="gray" d="M193,-610C187,-610 181,-604 181,-598"/>
<polyline fill="none" stroke="gray" points="181,-598 181,-549 "/>
<path fill="none" stroke="gray" d="M181,-549C181,-543 187,-537 193,-537"/>
<text text-anchor="middle" x="216" y="-595" font-family="Times,serif" font-size="11.00" fill="gray">Link</text>
</g>
<g id="graph6" class="cluster"><title>cluster_\Basho\Riak\MapReduce</title>
<polyline fill="none" stroke="gray" points="193,-456 239,-456 "/>
<path fill="none" stroke="gray" d="M239,-456C245,-456 251,-462 251,-468"/>
<polyline fill="none" stroke="gray" points="251,-468 251,-517 "/>
<path fill="none" stroke="gray" d="M251,-517C251,-523 245,-529 239,-529"/>
<polyline fill="none" stroke="gray" points="239,-529 193,-529 "/>
<path fill="none" stroke="gray" d="M193,-529C187,-529 181,-523 181,-517"/>
<polyline fill="none" stroke="gray" points="181,-517 181,-468 "/>
<path fill="none" stroke="gray" d="M181,-468C181,-462 187,-456 193,-456"/>
<text text-anchor="middle" x="216" y="-514" font-family="Times,serif" font-size="11.00" fill="gray">MapReduce</text>
</g>
<!-- \\Basho\\Riak\\Link\\Phase -->
<g id="node5" class="node"><title>\\Basho\\Riak\\Link\\Phase</title>
<polygon fill="none" stroke="black" points="243,-581 189,-581 189,-545 243,-545 243,-581"/>
<text text-anchor="middle" x="216" y="-558.6" font-family="Courier,monospace" font-size="11.00">Phase</text>
</g>
<!-- \\Basho\\Riak\\MapReduce\\Phase -->
<g id="node7" class="node"><title>\\Basho\\Riak\\MapReduce\\Phase</title>
<polygon fill="none" stroke="black" points="243,-500 189,-500 189,-464 243,-464 243,-500"/>
<text text-anchor="middle" x="216" y="-477.6" font-family="Courier,monospace" font-size="11.00">Phase</text>
</g>
<!-- \\Basho\\Riak\\Bucket -->
<g id="node8" class="node"><title>\\Basho\\Riak\\Bucket</title>
<polygon fill="none" stroke="black" points="243.608,-446 188.392,-446 188.392,-410 243.608,-410 243.608,-446"/>
<text text-anchor="middle" x="216" y="-423.6" font-family="Courier,monospace" font-size="11.00">Bucket</text>
</g>
<!-- \\Basho\\Riak\\Exception -->
<g id="node9" class="node"><title>\\Basho\\Riak\\Exception</title>
<polygon fill="none" stroke="black" points="253.911,-392 178.089,-392 178.089,-356 253.911,-356 253.911,-392"/>
<text text-anchor="middle" x="216" y="-369.6" font-family="Courier,monospace" font-size="11.00">Exception</text>
</g>
<!-- \\Exception -->
<g id="node17" class="node"><title>\\Exception</title>
<ellipse fill="none" stroke="black" cx="53" cy="-374" rx="52.7417" ry="18"/>
<text text-anchor="middle" x="53" y="-368.4" font-family="Times,serif" font-size="14.00" fill="gray">\Exception</text>
</g>
<!-- \\Basho\\Riak\\Exception&#45;&gt;\\Exception -->
<g id="edge7" class="edge"><title>\\Basho\\Riak\\Exception&#45;&gt;\\Exception</title>
<path fill="none" stroke="black" d="M178.063,-374C159.713,-374 137.042,-374 116.12,-374"/>
<polygon fill="none" stroke="black" points="116.017,-370.5 106.017,-374 116.017,-377.5 116.017,-370.5"/>
</g>
<!-- \\Basho\\Riak\\Link -->
<g id="node10" class="node"><title>\\Basho\\Riak\\Link</title>
<polygon fill="none" stroke="black" points="243,-338 189,-338 189,-302 243,-302 243,-338"/>
<text text-anchor="middle" x="216" y="-315.6" font-family="Courier,monospace" font-size="11.00">Link</text>
</g>
<!-- \\Basho\\Riak\\MapReduce -->
<g id="node11" class="node"><title>\\Basho\\Riak\\MapReduce</title>
<polygon fill="none" stroke="black" points="253.911,-284 178.089,-284 178.089,-248 253.911,-248 253.911,-284"/>
<text text-anchor="middle" x="216" y="-261.6" font-family="Courier,monospace" font-size="11.00">MapReduce</text>
</g>
<!-- \\Basho\\Riak\\Object -->
<g id="node12" class="node"><title>\\Basho\\Riak\\Object</title>
<polygon fill="none" stroke="black" points="243.608,-230 188.392,-230 188.392,-194 243.608,-194 243.608,-230"/>
<text text-anchor="middle" x="216" y="-207.6" font-family="Courier,monospace" font-size="11.00">Object</text>
</g>
<!-- \\Basho\\Riak\\Riak -->
<g id="node13" class="node"><title>\\Basho\\Riak\\Riak</title>
<polygon fill="none" stroke="black" points="243,-176 189,-176 189,-140 243,-140 243,-176"/>
<text text-anchor="middle" x="216" y="-153.6" font-family="Courier,monospace" font-size="11.00">Riak</text>
</g>
<!-- \\Basho\\Riak\\StringIO -->
<g id="node14" class="node"><title>\\Basho\\Riak\\StringIO</title>
<polygon fill="none" stroke="black" points="250.309,-122 181.691,-122 181.691,-86 250.309,-86 250.309,-122"/>
<text text-anchor="middle" x="216" y="-99.6" font-family="Courier,monospace" font-size="11.00">StringIO</text>
</g>
<!-- \\Basho\\Riak\\Utils -->
<g id="node15" class="node"><title>\\Basho\\Riak\\Utils</title>
<polygon fill="none" stroke="black" points="243,-68 189,-68 189,-32 243,-32 243,-68"/>
<text text-anchor="middle" x="216" y="-45.6" font-family="Courier,monospace" font-size="11.00">Utils</text>
</g>
</g>
</svg>
